<?xml version="1.0" encoding="UTF-8"?>
<svg width="19px" height="19px" viewBox="0 0 19 19" version="1.1" xmlns="http://www.w3.org/2000/svg" xmlns:xlink="http://www.w3.org/1999/xlink">
    <!-- Generator: Sketch 48.2 (47327) - http://www.bohemiancoding.com/sketch -->
    <title>chat-comment-oval-speech-bubble-with-text-lines</title>
    <desc>Created with Sketch.</desc>
    <defs></defs>
    <g id="Desktop" stroke="none" stroke-width="1" fill="none" fill-rule="evenodd" transform="translate(-50.000000, -240.000000)">
        <g id="chat-comment-oval-speech-bubble-with-text-lines" transform="translate(50.000000, 240.000000)" fill="#000000" fill-rule="nonzero">
            <path d="M12.46875,10.09375 L6.53125,10.09375 C6.2035,10.09375 5.9375,10.35975 5.9375,10.6875 C5.9375,11.01525 6.2035,11.28125 6.53125,11.28125 L12.46875,11.28125 C12.7965,11.28125 13.0625,11.01525 13.0625,10.6875 C13.0625,10.35975 12.7965,10.09375 12.46875,10.09375 Z M13.65625,6.53125 L5.34375,6.53125 C5.016,6.53125 4.75,6.79725 4.75,7.125 C4.75,7.45275 5.016,7.71875 5.34375,7.71875 L13.65625,7.71875 C13.984,7.71875 14.25,7.45275 14.25,7.125 C14.25,6.79725 13.984,6.53125 13.65625,6.53125 Z M9.5,0 C4.25364052,0 0,3.72160948 0,8.3125 C0,10.9363007 1.39233987,13.2720899 3.5625,14.7956601 L3.5625,19 L7.72408987,16.4747696 C8.30005065,16.5698007 8.89258987,16.625 9.5,16.625 C14.7469804,16.625 19,12.9033905 19,8.3125 C19,3.72160948 14.7469804,0 9.5,0 Z M9.5,15.4375 C8.8065,15.4375 8.13675,15.35675 7.49310948,15.2195899 L4.69771895,16.8998791 L4.73512908,14.1460899 C2.59232026,12.8570703 1.1875,10.7267108 1.1875,8.3125 C1.1875,4.37773039 4.90910948,1.1875 9.5,1.1875 C14.0908905,1.1875 17.8125,4.37773039 17.8125,8.3125 C17.8125,12.2472696 14.0908905,15.4375 9.5,15.4375 Z" id="Shape"></path>
        </g>
    </g>
</svg>